<svg width="24" height="24" viewBox="0 0 24 24" fill="none" xmlns="http://www.w3.org/2000/svg">
<path fill-rule="evenodd" clip-rule="evenodd" d="M11.889 12.619H11.921C14.849 12.619 17.23 10.238 17.23 7.31C17.23 4.382 14.849 2 11.921 2C8.99202 2 6.61002 4.382 6.61002 7.307C6.60002 10.227 8.96702 12.61 11.889 12.619ZM8.03802 7.31C8.03802 5.169 9.78002 3.428 11.921 3.428C14.061 3.428 15.802 5.169 15.802 7.31C15.802 9.45 14.061 11.192 11.921 11.192H11.892C9.76002 11.184 8.03102 9.444 8.03802 7.31Z" fill="#9E9E9E"/>
<path fill-rule="evenodd" clip-rule="evenodd" d="M4 18.1733C4 21.8703 9.962 21.8703 11.921 21.8703C15.32 21.8703 19.84 21.4893 19.84 18.1933C19.84 14.4963 13.88 14.4963 11.921 14.4963C8.521 14.4963 4 14.8773 4 18.1733ZM5.5 18.1733C5.5 16.7283 7.66 15.9963 11.921 15.9963C16.181 15.9963 18.34 16.7353 18.34 18.1933C18.34 19.6383 16.181 20.3703 11.921 20.3703C7.66 20.3703 5.5 19.6313 5.5 18.1733Z" fill="#9E9E9E"/>
</svg>
