<svg width="24" height="24" viewBox="0 0 24 24" fill="none" xmlns="http://www.w3.org/2000/svg">
<path fill-rule="evenodd" clip-rule="evenodd" d="M11.9989 9.64062C10.6689 9.64062 9.58789 10.7226 9.58789 12.0526C9.58789 13.3816 10.6689 14.4626 11.9989 14.4626C13.3289 14.4626 14.4109 13.3816 14.4109 12.0526C14.4109 10.7226 13.3289 9.64062 11.9989 9.64062ZM11.9989 15.9626C9.84189 15.9626 8.08789 14.2086 8.08789 12.0526C8.08789 9.89562 9.84189 8.14062 11.9989 8.14062C14.1559 8.14062 15.9109 9.89562 15.9109 12.0526C15.9109 14.2086 14.1559 15.9626 11.9989 15.9626Z" fill="#212121"/>
<mask id="mask0_115_24025" style="mask-type:luminance" maskUnits="userSpaceOnUse" x="2" y="4" width="20" height="17">
<path fill-rule="evenodd" clip-rule="evenodd" d="M2 4H21.9998V20.105H2V4Z" fill="white"/>
</mask>
<g mask="url(#mask0_115_24025)">
<path fill-rule="evenodd" clip-rule="evenodd" d="M3.57031 12.053C5.43031 16.162 8.56331 18.605 12.0003 18.606C15.4373 18.605 18.5703 16.162 20.4303 12.053C18.5703 7.94498 15.4373 5.50198 12.0003 5.50098C8.56431 5.50198 5.43031 7.94498 3.57031 12.053ZM12.0017 20.1057H11.9978H11.9967C7.86075 20.1027 4.14675 17.2038 2.06075 12.3488C1.97975 12.1597 1.97975 11.9458 2.06075 11.7568C4.14675 6.90275 7.86175 4.00375 11.9967 4.00075C11.9987 3.99975 11.9987 3.99975 11.9998 4.00075C12.0017 3.99975 12.0017 3.99975 12.0028 4.00075C16.1388 4.00375 19.8527 6.90275 21.9387 11.7568C22.0208 11.9458 22.0208 12.1597 21.9387 12.3488C19.8537 17.2038 16.1388 20.1027 12.0028 20.1057H12.0017Z" fill="#212121"/>
</g>
</svg>
