<svg width="24" height="24" viewBox="0 0 24 24" fill="none" xmlns="http://www.w3.org/2000/svg">
<path d="M23.0001 12.4735C23.0001 11.5506 22.9252 10.8771 22.7632 10.1787H12.2246V14.3442H18.4105C18.2858 15.3794 17.6124 16.9383 16.1157 17.9859L16.0948 18.1254L19.4269 20.7067L19.6577 20.7297C21.7778 18.7717 23.0001 15.8907 23.0001 12.4735Z" fill="#4285F4"/>
<path d="M12.2245 23.4489C15.2551 23.4489 17.7993 22.4511 19.6576 20.73L16.1156 17.9862C15.1678 18.6472 13.8957 19.1087 12.2245 19.1087C9.25627 19.1087 6.73701 17.1507 5.83897 14.4443L5.70734 14.4555L2.24258 17.1369L2.19727 17.2629C4.04305 20.9295 7.83444 23.4489 12.2245 23.4489Z" fill="#34A853"/>
<path d="M5.83895 14.444C5.602 13.7456 5.46486 12.9973 5.46486 12.2241C5.46486 11.4508 5.602 10.7025 5.82649 10.0041L5.82021 9.85535L2.31203 7.13086L2.19725 7.18546C1.43651 8.70702 1 10.4157 1 12.2241C1 14.0324 1.43651 15.741 2.19725 17.2626L5.83895 14.444Z" fill="#FBBC05"/>
<path d="M12.2245 5.34011C14.3322 5.34011 15.7539 6.25053 16.5646 7.01136L19.7324 3.91837C17.7869 2.10998 15.2551 1 12.2245 1C7.83444 1 4.04305 3.51925 2.19727 7.18589L5.8265 10.0045C6.73701 7.29818 9.25627 5.34011 12.2245 5.34011Z" fill="#EB4335"/>
</svg>
