<svg width="24" height="24" viewBox="0 0 24 24" fill="none" xmlns="http://www.w3.org/2000/svg">
<path d="M13.2529 2C13.5101 2.00025 13.708 2.21013 13.708 2.45996V5.67969C13.708 7.50962 15.2029 9.00942 17.0146 9.01953C17.7669 9.01953 18.361 9.03027 18.8164 9.03027C19.1233 9.03027 19.6289 9.01953 20.0547 9.01953C20.302 9.01966 20.4999 9.21993 20.5 9.46973V17.5098C20.5 19.9897 18.51 21.9999 16.0547 22H8.17285C5.5988 21.9998 3.50002 19.8899 3.5 17.29V6.50977C3.50013 4.02987 5.50055 2 7.96582 2H13.2529ZM8.92578 14.9004C8.51996 14.9004 8.18379 15.2298 8.18359 15.6396C8.18359 16.0496 8.51984 16.3896 8.92578 16.3896H14.3115C14.7175 16.3896 15.0547 16.0496 15.0547 15.6396C15.0545 15.2298 14.7173 14.9004 14.3115 14.9004H8.92578ZM8.92578 9.90039C8.51984 9.90039 8.18359 10.2404 8.18359 10.6504C8.18381 11.0602 8.51997 11.3896 8.92578 11.3896H12.2725C12.6782 11.3895 13.0144 11.0601 13.0146 10.6504C13.0146 10.2405 12.6783 9.90049 12.2725 9.90039H8.92578ZM15.1504 2.90625C15.1504 2.47525 15.6688 2.26127 15.9648 2.57227C17.0352 3.69631 18.9057 5.66088 19.9512 6.75879C20.24 7.06175 20.0279 7.56522 19.6113 7.56641C18.7975 7.56941 17.8376 7.56559 17.1475 7.55859C16.0525 7.55845 15.1504 6.6479 15.1504 5.54199V2.90625Z" fill="#7F27FF"/>
</svg>
