<svg width="24" height="24" viewBox="0 0 24 24" fill="none" xmlns="http://www.w3.org/2000/svg">
<path fill-rule="evenodd" clip-rule="evenodd" d="M8.32812 16.1357C8.32812 15.7215 8.66391 15.3857 9.07812 15.3857H14.8931C15.3073 15.3857 15.6431 15.7215 15.6431 16.1357C15.6431 16.55 15.3073 16.8857 14.8931 16.8857H9.07812C8.66391 16.8857 8.32812 16.55 8.32812 16.1357Z" fill="#9E9E9E"/>
<path fill-rule="evenodd" clip-rule="evenodd" d="M6.81025 5.97765C6.3977 6.35978 6.02729 6.68822 5.69801 6.97845C5.65154 7.01941 5.60603 7.05949 5.56144 7.09875C5.28253 7.34435 5.03964 7.55824 4.82146 7.75963C4.31615 8.22608 3.99696 8.57827 3.77124 8.97216C3.31874 9.76176 3.15039 10.869 3.15039 13.713C3.15039 15.7691 3.27345 17.2451 3.55155 18.3153C3.82454 19.3658 4.23151 19.9679 4.77061 20.3548C5.33365 20.759 6.13743 20.9997 7.34784 21.1245C8.55705 21.2491 10.0654 21.25 11.9864 21.25C13.9074 21.25 15.4157 21.2491 16.6249 21.1245C17.8354 20.9997 18.6391 20.759 19.2022 20.3548C19.7413 19.9679 20.1482 19.3658 20.4212 18.3153C20.6993 17.2451 20.8224 15.7691 20.8224 13.713C20.8224 10.8689 20.6543 9.76166 20.202 8.97204C19.9764 8.57818 19.6573 8.22601 19.1521 7.75958C18.9338 7.55801 18.6907 7.34391 18.4115 7.09801C18.3671 7.05898 18.3219 7.01914 18.2757 6.97843C17.9465 6.6882 17.576 6.35976 17.1635 5.97762C16.9193 5.78041 16.6663 5.56703 16.4041 5.34588C15.833 4.86414 15.2181 4.34554 14.5548 3.87695C13.5699 3.18118 12.6779 2.75 11.9584 2.75C11.2413 2.75 10.3614 3.18121 9.38952 3.87803C8.75523 4.33278 8.175 4.827 7.62981 5.29137C7.34815 5.53128 7.07583 5.76323 6.81025 5.97765ZM8.51551 2.65897C9.51584 1.94179 10.7325 1.25 11.9584 1.25C13.1809 1.25 14.4074 1.93632 15.4202 2.6518C16.1362 3.15759 16.8445 3.75449 17.4374 4.25416C17.6903 4.46729 17.9222 4.66274 18.1248 4.82587C18.1384 4.83681 18.1516 4.84822 18.1644 4.86008C18.5704 5.23662 18.9358 5.5607 19.2676 5.85318C19.3126 5.89284 19.3571 5.93205 19.4011 5.97083C19.679 6.21553 19.9372 6.4429 20.1696 6.65748C20.7089 7.15537 21.1628 7.63157 21.5036 8.22646C22.184 9.41434 22.3224 10.9261 22.3224 13.713C22.3224 15.8004 22.2006 17.432 21.873 18.6926C21.5404 19.9727 20.9809 20.9245 20.0769 21.5734C19.1968 22.2051 18.0807 22.4824 16.7787 22.6166C15.4841 22.75 13.8998 22.75 12.0235 22.75H11.9492C10.073 22.75 8.4887 22.75 7.19404 22.6166C5.89204 22.4824 4.77601 22.2051 3.89592 21.5734C2.9919 20.9245 2.43243 19.9727 2.09976 18.6926C1.7722 17.432 1.65039 15.8004 1.65039 13.713C1.65039 10.926 1.78904 9.41424 2.46979 8.22634C2.81069 7.63148 3.26469 7.1553 3.80404 6.65743C4.03622 6.4431 4.29415 6.216 4.5717 5.97161C4.61604 5.93257 4.66087 5.89309 4.70619 5.85316C5.038 5.56069 5.40338 5.23661 5.8094 4.86008C5.82223 4.84818 5.83547 4.83674 5.8491 4.82577C6.06122 4.65502 6.30878 4.44454 6.58032 4.21367C7.1543 3.72566 7.83544 3.14655 8.51551 2.65897Z" fill="#9E9E9E"/>
</svg>
