<svg width="20" height="20" viewBox="0 0 20 20" fill="none" xmlns="http://www.w3.org/2000/svg">
<path fill-rule="evenodd" clip-rule="evenodd" d="M14.1023 8.50013C13.7573 8.50013 13.4773 8.22013 13.4773 7.87513V6.08596C13.4773 4.3393 12.0565 2.91846 10.3098 2.91846H10.2965C9.4523 2.91846 8.66146 3.24346 8.06396 3.83596C7.4623 4.43096 7.1298 5.22513 7.12646 6.0718V7.87513C7.12646 8.22013 6.84646 8.50013 6.50146 8.50013C6.15646 8.50013 5.87646 8.22013 5.87646 7.87513V6.08596C5.88146 4.88596 6.34563 3.77846 7.18313 2.94846C8.02147 2.11763 9.12813 1.6368 10.3123 1.66846C12.7456 1.66846 14.7273 3.65013 14.7273 6.08596V7.87513C14.7273 8.22013 14.4473 8.50013 14.1023 8.50013Z" fill="#212121"/>
<path fill-rule="evenodd" clip-rule="evenodd" d="M7.11825 8.44043C5.71992 8.44043 4.58325 9.5771 4.58325 10.9754V14.5496C4.58325 15.9479 5.71992 17.0846 7.11825 17.0846H13.4858C14.8833 17.0846 16.0208 15.9479 16.0208 14.5496V10.9754C16.0208 9.5771 14.8833 8.44043 13.4858 8.44043H7.11825ZM13.4858 18.3346H7.11825C5.03075 18.3346 3.33325 16.6371 3.33325 14.5496V10.9754C3.33325 8.88793 5.03075 7.19043 7.11825 7.19043H13.4858C15.5733 7.19043 17.2708 8.88793 17.2708 10.9754V14.5496C17.2708 16.6371 15.5733 18.3346 13.4858 18.3346Z" fill="#212121"/>
<path fill-rule="evenodd" clip-rule="evenodd" d="M10.3018 14.3127C9.95676 14.3127 9.67676 14.0327 9.67676 13.6877V11.8369C9.67676 11.4919 9.95676 11.2119 10.3018 11.2119C10.6468 11.2119 10.9268 11.4919 10.9268 11.8369V13.6877C10.9268 14.0327 10.6468 14.3127 10.3018 14.3127Z" fill="#212121"/>
</svg>
