<svg width="24" height="24" viewBox="0 0 24 24" fill="none" xmlns="http://www.w3.org/2000/svg">
<path d="M15.4502 3.78027C15.4102 4.03026 15.3896 4.28028 15.3896 4.53027C15.3896 6.78027 17.2102 8.59961 19.4502 8.59961C19.7001 8.59959 19.9405 8.57026 20.1904 8.53027V16.5996C20.1903 19.9904 18.1899 22 14.79 22H7.40137C4.00047 22 2.00012 19.9904 2 16.5996V9.2002C2.00004 5.80026 4.0004 3.78027 7.40137 3.78027H15.4502ZM15.6514 9.86035C15.3805 9.83037 15.1112 9.95014 14.9502 10.1699L12.5312 13.3008L9.75977 11.1201C9.58995 10.9903 9.39018 10.9391 9.19043 10.96C8.99143 10.99 8.81143 11.0998 8.69043 11.2598L5.73145 15.1104L5.66992 15.2002C5.49993 15.5192 5.57991 15.9294 5.87988 16.1504C6.01984 16.2404 6.16991 16.3007 6.33984 16.3008C6.57084 16.3108 6.78969 16.189 6.92969 16L9.44043 12.7695L12.29 14.9102L12.3799 14.9697C12.6998 15.1396 13.1001 15.0605 13.3301 14.7598L16.2197 11.0303L16.1797 11.0508C16.3396 10.8309 16.3696 10.5507 16.2598 10.3008C16.1508 10.0509 15.9102 9.88048 15.6514 9.86035ZM19.5898 2C20.9198 2 22 3.08016 22 4.41016C21.9999 5.74008 20.9198 6.82031 19.5898 6.82031C18.26 6.82017 17.1798 5.74 17.1797 4.41016C17.1797 3.08024 18.26 2.00014 19.5898 2Z" fill="#7F27FF"/>
</svg>
